<svg width="123" height="45" viewBox="0 0 123 45" fill="none" xmlns="http://www.w3.org/2000/svg">
<path d="M18.1 22.68C15.5667 22.68 13.6133 22.18 12.24 21.18C10.88 20.18 10.2 18.78 10.2 16.98C10.2 16.2467 10.3333 15.5667 10.6 14.94C10.88 14.3133 11.32 13.8067 11.92 13.42C12.52 13.02 13.3 12.82 14.26 12.82C14.6067 12.82 14.9733 12.8533 15.36 12.92C15.7467 12.9733 16.12 13.12 16.48 13.36C16.8533 13.5867 17.1867 13.9533 17.48 14.46C17.7867 14.9667 18.02 15.66 18.18 16.54L18.72 16.44C18.5867 15.44 18.2533 14.56 17.72 13.8C17.2 13.0267 16.4867 12.4267 15.58 12C14.6733 11.56 13.58 11.34 12.3 11.34C12.18 11.1 12.0867 10.7733 12.02 10.36C11.9533 9.94667 11.92 9.50667 11.92 9.04C11.9333 8.56 11.9733 8.1 12.04 7.66C12.12 7.20667 12.2333 6.82 12.38 6.5C14.6067 6.62 16.42 6.7 17.82 6.74C19.2333 6.78 20.3933 6.8 21.3 6.8C22.0333 6.8 22.7667 6.78667 23.5 6.76C24.2333 6.72 24.9133 6.67333 25.54 6.62C26.18 6.56667 26.7 6.52667 27.1 6.5C27.2333 6.82 27.3333 7.20667 27.4 7.66C27.4667 8.1 27.5 8.56 27.5 9.04C27.5 9.52 27.4733 9.96667 27.42 10.38C27.3667 10.7933 27.28 11.12 27.16 11.36C26.96 11.36 26.76 11.4133 26.56 11.52C26.36 11.6267 26.1933 11.84 26.06 12.16C25.9267 12.4667 25.86 12.9467 25.86 13.6C25.86 14.2267 25.9 14.82 25.98 15.38C26.0733 15.94 26.12 16.4667 26.12 16.96C26.12 18.32 25.7933 19.42 25.14 20.26C24.5 21.1 23.58 21.7133 22.38 22.1C21.18 22.4867 19.7533 22.68 18.1 22.68ZM36.2541 22.7C30.1607 22.7 27.1141 20.22 27.1141 15.26C27.1141 12.5533 27.8807 10.5667 29.4141 9.3C30.9607 8.03333 33.2741 7.4 36.3541 7.4C39.6207 7.4 41.9941 8.02667 43.4741 9.28C44.9674 10.52 45.7141 12.3533 45.7141 14.78C45.7141 17.5133 44.9274 19.52 43.3541 20.8C41.7807 22.0667 39.4141 22.7 36.2541 22.7ZM35.8741 16.14H36.9541V13.96H35.8741V16.14ZM46.1259 22.34C46.0193 22.06 45.9326 21.7067 45.8659 21.28C45.7993 20.8533 45.7593 20.4133 45.7459 19.96C45.7459 19.4933 45.7593 19.0467 45.7859 18.62C45.8259 18.1933 45.8926 17.84 45.9859 17.56C46.4126 17.4667 46.7393 17.2733 46.9659 16.98C47.2059 16.6733 47.3793 16.3067 47.4859 15.88C47.5926 15.44 47.6793 14.9867 47.7459 14.52C47.8259 14.0267 47.8793 13.5533 47.9059 13.1C47.9326 12.6333 47.8793 12.24 47.7459 11.92C47.6259 11.6 47.3593 11.4067 46.9459 11.34C46.8259 11.1 46.7393 10.7733 46.6859 10.36C46.6326 9.94667 46.6059 9.50667 46.6059 9.04C46.6193 8.56 46.6593 8.1 46.7259 7.66C46.7926 7.20667 46.8926 6.82 47.0259 6.5C47.3726 6.52667 47.7526 6.55333 48.1659 6.58C48.5793 6.60667 49.0726 6.63333 49.6459 6.66C49.4593 7.43333 49.3926 8.18 49.4459 8.9C49.5126 9.62 49.6526 10.1467 49.8659 10.48C49.9059 8.49333 50.2059 7.08 50.7659 6.24C51.3259 5.4 52.1526 4.98 53.2459 4.98C53.7259 4.98 54.1659 5.03333 54.5659 5.14C54.9793 5.23333 55.3726 5.33333 55.7459 5.44C56.1193 5.53333 56.4726 5.58 56.8059 5.58C57.1659 5.58 57.4659 5.52 57.7059 5.4C57.9459 5.28 58.1326 5.11333 58.2659 4.9C58.5459 4.9 58.9059 4.92667 59.3459 4.98C59.7859 5.02 60.2193 5.08 60.6459 5.16C61.0726 5.24 61.3993 5.34 61.6259 5.46C61.6259 5.60667 61.6259 5.75333 61.6259 5.9C61.6259 6.03333 61.6193 6.16667 61.6059 6.3H61.7459C62.6526 6.3 63.3659 6.49333 63.8859 6.88C64.4193 7.25333 64.8193 7.74667 65.0859 8.36C65.3526 8.97333 65.5259 9.63333 65.6059 10.34C65.6859 11.0467 65.7193 11.74 65.7059 12.42C65.7059 13.0867 65.7059 13.6667 65.7059 14.16C65.7059 14.9467 65.7793 15.5733 65.9259 16.04C66.0726 16.4933 66.2659 16.8333 66.5059 17.06C66.7593 17.2867 67.0259 17.4533 67.3059 17.56C67.3993 17.84 67.4593 18.1933 67.4859 18.62C67.5259 19.0467 67.5393 19.4933 67.5259 19.96C67.5259 20.4133 67.4926 20.8533 67.4259 21.28C67.3593 21.7067 67.2726 22.06 67.1659 22.34C66.6193 22.2867 65.9593 22.22 65.1859 22.14C64.4259 22.06 63.5059 22.02 62.4259 22.02C61.3193 22.02 60.2726 22.06 59.2859 22.14C58.3126 22.22 57.5526 22.2867 57.0059 22.34C56.9526 22.06 56.9059 21.7067 56.8659 21.28C56.8259 20.8533 56.7993 20.4133 56.7859 19.96C56.7726 19.4933 56.7726 19.0467 56.7859 18.62C56.7993 18.1933 56.8259 17.84 56.8659 17.56H57.4259V16.56H55.6859V17.56H56.2459C56.2993 17.84 56.3326 18.1933 56.3459 18.62C56.3726 19.0467 56.3793 19.4933 56.3659 19.96C56.3526 20.4133 56.3259 20.8533 56.2859 21.28C56.2459 21.7067 56.1859 22.06 56.1059 22.34C55.7459 22.3 55.3593 22.2533 54.9459 22.2C54.5459 22.16 54.0726 22.12 53.5259 22.08C52.9926 22.04 52.3326 22.02 51.5459 22.02C50.3059 22.02 49.2393 22.0533 48.3459 22.12C47.4526 22.2 46.7126 22.2733 46.1259 22.34ZM55.8259 13.62H57.2659V12.68H55.8259V13.62ZM77.0094 22.7C73.8094 22.7 71.3894 22.02 69.7494 20.66C68.1227 19.3 67.3094 17.2867 67.3094 14.62C67.3094 11.6867 68.136 9.53333 69.7894 8.16C71.4427 6.78667 73.8827 6.1 77.1094 6.1C80.5494 6.1 83.0694 6.78 84.6694 8.14C86.2694 9.48667 87.0694 11.4733 87.0694 14.1C87.0694 17.0733 86.2227 19.2533 84.5294 20.64C82.836 22.0133 80.3294 22.7 77.0094 22.7ZM76.5694 15.68H77.7894V13.1H76.5694V15.68ZM92.3402 22.34C92.2202 22.06 92.1268 21.7067 92.0602 21.28C91.9935 20.8533 91.9535 20.4133 91.9402 19.96C91.9268 19.4933 91.9402 19.0467 91.9802 18.62C92.0335 18.1933 92.1068 17.84 92.2002 17.56C92.4002 17.48 92.5935 17.3467 92.7802 17.16C92.9802 16.96 93.1468 16.6467 93.2802 16.22C93.4135 15.78 93.4802 15.1667 93.4802 14.38C93.4802 13.5267 93.4002 12.8867 93.2402 12.46C93.0935 12.02 92.9135 11.7267 92.7002 11.58C92.5002 11.42 92.3202 11.34 92.1602 11.34C92.0402 11.1 91.9535 10.7733 91.9002 10.36C91.8468 9.94667 91.8202 9.50667 91.8202 9.04C91.8335 8.56 91.8735 8.1 91.9402 7.66C92.0068 7.20667 92.1068 6.82 92.2402 6.5C93.2268 6.54 94.1135 6.54667 94.9002 6.52C95.7002 6.49333 96.4935 6.45333 97.2802 6.4C98.0802 6.34667 98.9468 6.3 99.8802 6.26C100.827 6.20667 101.94 6.18 103.22 6.18C105.1 6.18 106.687 6.34667 107.98 6.68C109.273 7 110.253 7.59333 110.92 8.46C111.6 9.31333 111.94 10.5333 111.94 12.12C111.94 13.4933 111.68 14.5933 111.16 15.42C110.653 16.2467 109.92 16.8467 108.96 17.22C108 17.58 106.847 17.76 105.5 17.76C104.647 17.76 103.967 17.6933 103.46 17.56C102.953 17.4133 102.487 17.0933 102.06 16.6L101.64 16.98C101.987 17.3933 102.407 17.7133 102.9 17.94C103.393 18.1533 104.007 18.2733 104.74 18.3C104.86 18.6733 104.933 19.1 104.96 19.58C105 20.06 104.987 20.54 104.92 21.02C104.867 21.5 104.767 21.9333 104.62 22.32C103.967 22.2667 103.06 22.2 101.9 22.12C100.753 22.04 99.4402 22.0067 97.9602 22.02C97.2135 22.02 96.4802 22.04 95.7602 22.08C95.0402 22.12 94.3802 22.16 93.7802 22.2C93.1935 22.2533 92.7135 22.3 92.3402 22.34ZM101.64 13.52H102.86V12.18H101.64V13.52Z" fill="#6DB5D3"/>
<path d="M50 10.5C51.1667 10.3333 53.9 9.7 55.5 8.5C57.1 7.3 60.1667 6.66667 61.5 6.5L62 5.5L58 4.5H50.5" stroke="black"/>
<path d="M6.82 35.38C6.08667 35.38 5.51333 35.2133 5.1 34.88C4.68667 34.5333 4.34 34.0933 4.06 33.56C3.74 32.9467 3.47333 32.2533 3.26 31.48C3.04667 30.7067 2.86 29.9133 2.7 29.1C2.55333 28.2867 2.40667 27.5133 2.26 26.78C2.08667 25.8333 1.83333 25.1933 1.5 24.86C1.18 24.5267 0.846667 24.3533 0.5 24.34C0.38 24.1 0.293333 23.7733 0.24 23.36C0.186667 22.9467 0.16 22.5067 0.16 22.04C0.173333 21.56 0.213333 21.1 0.28 20.66C0.346667 20.2067 0.446667 19.82 0.58 19.5C1.12667 19.5533 1.9 19.6133 2.9 19.68C3.91333 19.7467 5.04 19.78 6.28 19.78C7.18667 19.78 8.08 19.7467 8.96 19.68C9.85333 19.6133 10.5733 19.5533 11.12 19.5C10.88 20.4467 10.7733 21.4667 10.8 22.56C10.84 23.6533 10.98 24.7533 11.22 25.86C11.4733 26.9667 11.7933 28.0133 12.18 29L12.16 24.7H11.58C11.42 23.6067 11.36 22.6267 11.4 21.76C11.4533 20.88 11.5667 20.1267 11.74 19.5C12.1133 19.54 12.5067 19.5867 12.92 19.64C13.3333 19.68 13.8467 19.7133 14.46 19.74C15.0867 19.7667 15.88 19.78 16.84 19.78C17.2667 19.78 17.76 19.7667 18.32 19.74C18.88 19.7 19.4333 19.66 19.98 19.62C20.5267 19.5667 20.98 19.5267 21.34 19.5C21.4733 19.82 21.5733 20.2067 21.64 20.66C21.7067 21.1 21.74 21.56 21.74 22.04C21.7533 22.5067 21.7333 22.9467 21.68 23.36C21.6267 23.7733 21.54 24.1 21.42 24.34C21.0867 24.3533 20.7933 24.5067 20.54 24.8C20.2867 25.08 20.0733 25.6067 19.9 26.38C19.62 27.6067 19.3667 28.7667 19.14 29.86C18.9267 30.94 18.6733 31.8933 18.38 32.72C18.0867 33.5467 17.7067 34.1933 17.24 34.66C16.7733 35.1267 16.16 35.36 15.4 35.36C15 35.36 14.6467 35.3467 14.34 35.32C14.0333 35.2933 13.7267 35.26 13.42 35.22C13.1267 35.18 12.78 35.1467 12.38 35.12C11.9933 35.0933 11.5133 35.08 10.94 35.08C10.2067 35.08 9.60667 35.1067 9.14 35.16C8.67333 35.2133 8.26667 35.26 7.92 35.3C7.57333 35.3533 7.20667 35.38 6.82 35.38ZM30.4533 35.7C24.3599 35.7 21.3133 33.22 21.3133 28.26C21.3133 25.5533 22.0799 23.5667 23.6133 22.3C25.1599 21.0333 27.4733 20.4 30.5533 20.4C33.8199 20.4 36.1933 21.0267 37.6733 22.28C39.1666 23.52 39.9133 25.3533 39.9133 27.78C39.9133 30.5133 39.1266 32.52 37.5533 33.8C35.9799 35.0667 33.6133 35.7 30.4533 35.7ZM30.0733 29.14H31.1533V26.96H30.0733V29.14ZM40.2689 35.34C40.1622 35.0733 40.0756 34.7333 40.0089 34.32C39.9422 33.8933 39.9022 33.4467 39.8889 32.98C39.8889 32.5133 39.9022 32.0733 39.9289 31.66C39.9689 31.2333 40.0356 30.8867 40.1289 30.62C40.3289 30.54 40.5222 30.4067 40.7089 30.22C40.8956 30.02 41.0489 29.68 41.1689 29.2C41.2889 28.72 41.3489 28.0333 41.3489 27.14C41.3489 26.22 41.2756 25.5333 41.1289 25.08C40.9956 24.6133 40.8289 24.2933 40.6289 24.12C40.4422 23.9333 40.2756 23.8067 40.1289 23.74C40.0089 23.5133 39.9222 23.1933 39.8689 22.78C39.8156 22.3533 39.7889 21.9 39.7889 21.42C39.8022 20.9267 39.8422 20.46 39.9089 20.02C39.9756 19.5667 40.0756 19.1933 40.2089 18.9C40.5956 18.9267 41.0756 18.9667 41.6489 19.02C42.2222 19.0733 42.8422 19.12 43.5089 19.16C44.1889 19.1867 44.8489 19.2 45.4889 19.2C46.4356 19.2 47.2956 19.1733 48.0689 19.12C48.8556 19.0533 49.5289 18.9933 50.0889 18.94C50.2089 19.3133 50.2956 19.6733 50.3489 20.02C50.4022 20.3533 50.4289 20.6933 50.4289 21.04C50.4289 21.6667 50.3622 22.2867 50.2289 22.9C50.1089 23.5 49.9822 24.1533 49.8489 24.86C49.7289 25.5533 49.6689 26.3667 49.6689 27.3C49.6689 28.14 49.7289 28.7867 49.8489 29.24C49.9689 29.6933 50.1222 30.02 50.3089 30.22C50.4956 30.4067 50.6889 30.54 50.8889 30.62C51.0089 31.0333 51.0822 31.5467 51.1089 32.16C51.1356 32.76 51.1156 33.3533 51.0489 33.94C50.9956 34.5133 50.8956 34.98 50.7489 35.34C50.3756 35.3 49.8956 35.2533 49.3089 35.2C48.7222 35.16 48.0956 35.12 47.4289 35.08C46.7622 35.0533 46.1156 35.04 45.4889 35.04C44.8489 35.04 44.1956 35.0533 43.5289 35.08C42.8756 35.12 42.2622 35.16 41.6889 35.2C41.1156 35.2533 40.6422 35.3 40.2689 35.34ZM61.8891 38.06C60.9691 37.9533 60.1291 37.8733 59.3691 37.82C58.6224 37.78 57.8824 37.76 57.1491 37.76C56.5357 37.76 55.8957 37.7667 55.2291 37.78C54.5624 37.8067 53.9224 37.84 53.3091 37.88C52.6957 37.92 52.1557 37.9667 51.6891 38.02C51.5424 37.6333 51.4424 37.14 51.3891 36.54C51.3491 35.94 51.3491 35.34 51.3891 34.74C51.4291 34.1267 51.5157 33.6 51.6491 33.16C51.8091 33.08 51.9824 32.94 52.1691 32.74C52.3691 32.54 52.5357 32.2067 52.6691 31.74C52.8157 31.2733 52.8891 30.62 52.8891 29.78C52.8891 28.9 52.8491 28.1867 52.7691 27.64C52.6891 27.0933 52.5824 26.6733 52.4491 26.38C52.3291 26.0867 52.2024 25.8867 52.0691 25.78C51.9491 25.6733 51.8424 25.6133 51.7491 25.6C51.6157 25.16 51.5224 24.64 51.4691 24.04C51.4291 23.4267 51.4357 22.82 51.4891 22.22C51.5557 21.62 51.6691 21.1267 51.8291 20.74C52.2557 20.7933 52.6891 20.84 53.1291 20.88C53.5824 20.92 53.9824 20.9533 54.3291 20.98C54.6757 20.9933 54.8891 21 54.9691 21C55.7957 21 56.6091 20.9933 57.4091 20.98C58.2091 20.9533 58.8691 20.9267 59.3891 20.9C59.2157 21.0867 59.0424 21.36 58.8691 21.72C58.7091 22.08 58.5891 22.4467 58.5091 22.82C58.4291 23.1933 58.4157 23.5067 58.4691 23.76C58.6424 23.24 58.9424 22.7267 59.3691 22.22C59.8091 21.7 60.4091 21.2733 61.1691 20.94C61.9291 20.5933 62.8824 20.42 64.0291 20.42C65.5091 20.42 66.7624 20.7267 67.7891 21.34C68.8157 21.9533 69.5891 22.8267 70.1091 23.96C70.6424 25.0933 70.9091 26.44 70.9091 28C70.9091 30.4133 70.4091 32.3 69.4091 33.66C68.4091 35.0067 66.9024 35.68 64.8891 35.68C64.0224 35.68 63.2757 35.5733 62.6491 35.36C62.0224 35.16 61.4757 34.8867 61.0091 34.54C60.5424 34.1933 60.1157 33.8 59.7291 33.36L59.2891 33.76C59.6757 34.1867 60.0957 34.5733 60.5491 34.92C61.0024 35.2667 61.5157 35.5533 62.0891 35.78C62.1157 36.7933 62.0491 37.5533 61.8891 38.06ZM61.0691 28.96H62.1491V27.1H61.0691V28.96ZM80.4533 35.7C74.3599 35.7 71.3133 33.22 71.3133 28.26C71.3133 25.5533 72.0799 23.5667 73.6133 22.3C75.1599 21.0333 77.4733 20.4 80.5533 20.4C83.8199 20.4 86.1933 21.0267 87.6733 22.28C89.1666 23.52 89.9133 25.3533 89.9133 27.78C89.9133 30.5133 89.1266 32.52 87.5533 33.8C85.9799 35.0667 83.6133 35.7 80.4533 35.7ZM80.0733 29.14H81.1533V26.96H80.0733V29.14ZM90.3833 35.34C90.2499 34.9133 90.1499 34.4067 90.0833 33.82C90.0299 33.2333 90.0166 32.6467 90.0433 32.06C90.0699 31.4733 90.1366 30.9867 90.2433 30.6C90.5499 30.52 90.8299 30.3133 91.0833 29.98C91.3366 29.6333 91.4633 29.06 91.4633 28.26C91.4633 27.58 91.3899 27.0533 91.2433 26.68C91.1099 26.2933 90.9566 26.02 90.7833 25.86C90.6099 25.7 90.4566 25.6133 90.3233 25.6C90.1899 25.16 90.0966 24.64 90.0433 24.04C90.0033 23.4267 90.0099 22.82 90.0633 22.22C90.1299 21.62 90.2433 21.1267 90.4033 20.74C91.0299 20.82 91.7366 20.8867 92.5233 20.94C93.3099 20.98 94.1166 21 94.9433 21C95.7699 21 96.5833 20.9933 97.3833 20.98C98.1833 20.9533 98.8433 20.9267 99.3633 20.9C99.1899 21.0867 99.0033 21.4067 98.8033 21.86C98.6166 22.3 98.4633 22.7667 98.3433 23.26C98.2366 23.7533 98.2033 24.1867 98.2433 24.56C98.6033 23.3733 99.2899 22.42 100.303 21.7C101.317 20.9667 102.697 20.6 104.443 20.6C105.203 20.6 105.85 20.6667 106.383 20.8C106.93 20.92 107.377 21.1467 107.723 21.48C108.083 21.8133 108.363 22.3 108.563 22.94C108.75 23.4867 108.837 24.0467 108.823 24.62C108.81 25.18 108.77 25.7467 108.703 26.32C108.637 26.88 108.603 27.44 108.603 28C108.603 28.6133 108.663 29.1 108.783 29.46C108.903 29.8067 109.057 30.0667 109.243 30.24C109.443 30.4133 109.637 30.5333 109.823 30.6C109.943 30.9867 110.01 31.4733 110.023 32.06C110.05 32.6467 110.037 33.2333 109.983 33.82C109.93 34.4067 109.837 34.9133 109.703 35.34C109.197 35.2867 108.583 35.22 107.863 35.14C107.143 35.0733 106.237 35.04 105.143 35.04C104.157 35.04 103.237 35.0733 102.383 35.14C101.543 35.22 100.883 35.2867 100.403 35.34C100.337 34.98 100.283 34.5067 100.243 33.92C100.203 33.32 100.19 32.7 100.203 32.06C100.23 31.42 100.283 30.8667 100.363 30.4V27.64H99.6233V30.4C99.7166 30.8667 99.7699 31.42 99.7833 32.06C99.8099 32.7 99.8033 33.32 99.7633 33.92C99.7233 34.5067 99.6566 34.98 99.5633 35.34C99.2433 35.3 98.8899 35.2533 98.5033 35.2C98.1299 35.16 97.6699 35.12 97.1233 35.08C96.5766 35.0533 95.8966 35.04 95.0833 35.04C94.0833 35.04 93.1833 35.0733 92.3833 35.14C91.5966 35.2067 90.9299 35.2733 90.3833 35.34ZM110.835 35.34C110.729 35.0733 110.642 34.7333 110.575 34.32C110.509 33.8933 110.469 33.4467 110.455 32.98C110.455 32.5133 110.469 32.0733 110.495 31.66C110.535 31.2333 110.602 30.8867 110.695 30.62C110.895 30.54 111.089 30.4133 111.275 30.24C111.462 30.0667 111.615 29.8067 111.735 29.46C111.869 29.1133 111.935 28.64 111.935 28.04C111.935 27.4533 111.855 27 111.695 26.68C111.549 26.3467 111.375 26.1067 111.175 25.96C110.989 25.8 110.829 25.6867 110.695 25.62C110.575 25.3933 110.489 25.0733 110.435 24.66C110.382 24.2333 110.355 23.7733 110.355 23.28C110.369 22.7867 110.409 22.3133 110.475 21.86C110.542 21.4067 110.642 21.0333 110.775 20.74C110.922 20.7533 111.049 20.7733 111.155 20.8C111.262 20.8133 111.382 20.8267 111.515 20.84C111.462 21.6667 111.629 22.38 112.015 22.98C112.402 23.5667 112.929 23.9867 113.595 24.24C114.275 24.4933 114.995 24.5467 115.755 24.4C115.115 24.3733 114.522 24.2067 113.975 23.9C113.442 23.58 113.009 23.16 112.675 22.64C112.355 22.1067 112.195 21.5133 112.195 20.86C112.195 20.3133 112.322 19.7867 112.575 19.28C112.842 18.76 113.282 18.3333 113.895 18C114.509 17.6533 115.335 17.48 116.375 17.48C118.042 17.48 119.255 17.9 120.015 18.74C120.789 19.5667 121.175 20.7933 121.175 22.42C121.175 23.18 121.109 23.88 120.975 24.52C120.855 25.1467 120.729 25.7533 120.595 26.34C120.475 26.9133 120.415 27.5 120.415 28.1C120.415 28.6733 120.475 29.1333 120.595 29.48C120.729 29.8267 120.889 30.0867 121.075 30.26C121.275 30.42 121.469 30.54 121.655 30.62C121.749 30.8867 121.809 31.2333 121.835 31.66C121.875 32.0733 121.889 32.5133 121.875 32.98C121.875 33.4467 121.842 33.8933 121.775 34.32C121.709 34.7333 121.622 35.0733 121.515 35.34C121.142 35.3 120.655 35.2533 120.055 35.2C119.469 35.16 118.829 35.12 118.135 35.08C117.442 35.0533 116.749 35.04 116.055 35.04C115.415 35.04 114.762 35.0533 114.095 35.08C113.442 35.12 112.829 35.16 112.255 35.2C111.682 35.2533 111.209 35.3 110.835 35.34Z" fill="#FF0000"/>
</svg>
