<svg width="512" height="512" viewBox="0 0 512 512" fill="none" xmlns="http://www.w3.org/2000/svg">
<path d="M189.14 280.08V225H203.45V281.79C203.45 285.21 200.57 288 197.15 288H141.71C138.2 288 135.41 285.21 135.41 281.79V261.81H149.72V280.08H189.14ZM282.905 225C286.325 225 289.205 227.88 289.205 231.3V262.08C289.205 265.59 286.325 268.38 282.905 268.38H231.605V288H217.295V225H282.905ZM231.605 260.46H274.895V233.01H231.605V260.46ZM337.949 276.57L364.499 225H379.799L345.869 288H330.029L296.189 225H311.399L337.949 276.57Z" fill="white"/>
</svg>
