<svg width="78" height="44" viewBox="0 0 78 44" fill="none" xmlns="http://www.w3.org/2000/svg">
<g filter="url(#filter0_ddd_4_25)">
<path d="M21.5508 15.5371C21.5508 16.1947 21.4401 16.8132 21.2188 17.3926C20.9974 17.9655 20.6719 18.4668 20.2422 18.8965C19.8125 19.3197 19.2754 19.6549 18.6309 19.9023C17.9928 20.1497 17.2539 20.2734 16.4141 20.2734C15.8867 20.2734 15.3984 20.2018 14.9492 20.0586C14.5065 19.9219 14.1094 19.7526 13.7578 19.5508C13.4128 19.349 13.1165 19.1341 12.8691 18.9062C12.6217 18.6719 12.4362 18.4668 12.3125 18.291C12.2799 18.0827 12.2539 17.8874 12.2344 17.7051C12.2214 17.5163 12.2148 17.3503 12.2148 17.207C12.2148 16.6211 12.306 16.1296 12.4883 15.7324C12.6706 15.3353 12.9017 15.0163 13.1816 14.7754C13.4616 14.528 13.7708 14.3522 14.1094 14.248C14.4544 14.1374 14.7865 14.082 15.1055 14.082C15.3919 14.082 15.6686 14.1211 15.9355 14.1992C16.2025 14.2773 16.4499 14.3945 16.6777 14.5508C16.9121 14.7005 17.1204 14.8893 17.3027 15.1172C17.485 15.3385 17.6348 15.5957 17.752 15.8887C17.8366 15.8887 17.9082 15.8626 17.9668 15.8105C18.0319 15.7585 18.0645 15.6771 18.0645 15.5664C18.0645 15.4688 18.0189 15.3288 17.9277 15.1465C17.8366 14.9642 17.6966 14.7786 17.5078 14.5898C17.3255 14.3945 17.0944 14.2155 16.8145 14.0527C16.541 13.8835 16.2188 13.7663 15.8477 13.7012V8.07617C15.9844 7.97201 16.1504 7.86784 16.3457 7.76367C16.5475 7.65951 16.7689 7.56836 17.0098 7.49023C17.2507 7.41211 17.5046 7.35026 17.7715 7.30469C18.0384 7.2526 18.3086 7.22656 18.582 7.22656C18.8555 7.22656 19.1615 7.24935 19.5 7.29492C19.8451 7.34049 20.1673 7.43164 20.4668 7.56836C20.7728 7.69857 21.0299 7.88086 21.2383 8.11523C21.4466 8.34961 21.5508 8.65234 21.5508 9.02344V15.5371ZM27.5371 20.3027C26.7754 20.3027 26.0592 20.1855 25.3887 19.9512C24.7246 19.7168 24.1452 19.362 23.6504 18.8867C23.1621 18.4115 22.7747 17.819 22.4883 17.1094C22.2018 16.3997 22.0586 15.5697 22.0586 14.6191C22.0586 13.7598 22.1921 12.985 22.459 12.2949C22.7259 11.5983 23.1003 11.0059 23.582 10.5176C24.0638 10.0293 24.64 9.65495 25.3105 9.39453C25.9811 9.13411 26.7233 9.00391 27.5371 9.00391C28.3509 9.00391 29.0931 9.14388 29.7637 9.42383C30.4342 9.70378 31.0072 10.0977 31.4824 10.6055C31.9642 11.1068 32.3353 11.709 32.5957 12.4121C32.8626 13.1087 32.9961 13.8737 32.9961 14.707C32.9961 15.5664 32.8724 16.3411 32.625 17.0312C32.3776 17.7214 32.0195 18.3105 31.5508 18.7988C31.082 19.2806 30.5091 19.6517 29.832 19.9121C29.1549 20.1725 28.39 20.3027 27.5371 20.3027ZM27.3125 16.2695C27.3581 16.3151 27.4264 16.3379 27.5176 16.3379C27.6413 16.3379 27.7227 16.3021 27.7617 16.2305C27.8073 16.1523 27.8301 16.0286 27.8301 15.8594V14.4629C27.8301 14.1699 27.8236 13.9225 27.8105 13.7207C27.804 13.5189 27.7845 13.3529 27.752 13.2227C27.7194 13.0924 27.6771 13.0078 27.625 12.9688C27.5794 12.9297 27.5241 12.9102 27.459 12.9102C27.4004 12.9102 27.3516 12.9199 27.3125 12.9395C27.2799 12.959 27.2507 12.9818 27.2246 13.0078C27.2311 13.112 27.2409 13.2096 27.2539 13.3008C27.2669 13.3919 27.2767 13.4961 27.2832 13.6133C27.2897 13.724 27.2962 13.8574 27.3027 14.0137C27.3092 14.1634 27.3125 14.3457 27.3125 14.5605V16.2695ZM37.3418 8.67188C37.2181 8.6849 37.0814 8.70117 36.9316 8.7207C36.7884 8.74023 36.6419 8.76628 36.4922 8.79883C36.349 8.82487 36.209 8.85417 36.0723 8.88672C35.9355 8.91276 35.8151 8.9388 35.7109 8.96484C35.6849 8.71745 35.6589 8.44727 35.6328 8.1543C35.6133 7.85482 35.6035 7.51953 35.6035 7.14844C35.6035 6.88151 35.6328 6.6276 35.6914 6.38672C35.75 6.13932 35.8509 5.92448 35.9941 5.74219C36.1374 5.55339 36.3229 5.40365 36.5508 5.29297C36.7786 5.18229 37.0651 5.12695 37.4102 5.12695C37.6315 5.12695 37.8333 5.13997 38.0156 5.16602C38.2044 5.19206 38.377 5.22786 38.5332 5.27344C38.6895 5.3125 38.8359 5.35807 38.9727 5.41016C39.1094 5.45573 39.2428 5.49805 39.373 5.53711H41.3262C41.3587 5.77799 41.3815 6.02539 41.3945 6.2793C41.4141 6.52669 41.4238 6.77409 41.4238 7.02148C41.4238 7.30143 41.3945 7.56836 41.3359 7.82227C41.2773 8.07617 41.1764 8.30078 41.0332 8.49609C40.89 8.69141 40.7012 8.84766 40.4668 8.96484C40.2389 9.08203 39.9557 9.14062 39.6172 9.14062C39.3503 9.14062 39.1061 9.12435 38.8848 9.0918C38.6634 9.05924 38.4616 9.02018 38.2793 8.97461C38.097 8.92253 37.9277 8.87044 37.7715 8.81836C37.6217 8.75977 37.4785 8.71094 37.3418 8.67188ZM38.3086 15.6445C38.1589 15.6445 38.0514 15.6836 37.9863 15.7617C37.9277 15.8333 37.8984 15.918 37.8984 16.0156C37.8984 16.1458 37.944 16.237 38.0352 16.2891C38.1328 16.3411 38.2467 16.3672 38.377 16.3672C38.5853 16.3672 38.7448 16.3151 38.8555 16.2109C38.9661 16.1068 39.0215 15.918 39.0215 15.6445H38.3086ZM37.3809 9.14062C37.7324 9.27734 38.0807 9.38802 38.4258 9.47266C38.7773 9.55078 39.1745 9.58984 39.6172 9.58984C39.9102 9.58984 40.138 9.57031 40.3008 9.53125C40.4635 9.49219 40.5872 9.44661 40.6719 9.39453C41.5833 9.68099 42.2604 10.153 42.7031 10.8105C43.1523 11.4681 43.377 12.2819 43.377 13.252V15.166C43.377 15.6152 43.4258 15.9863 43.5234 16.2793C43.6211 16.5723 43.8066 16.8034 44.0801 16.9727C44.0866 17.0247 44.0898 17.0898 44.0898 17.168C44.0898 17.2396 44.0898 17.2949 44.0898 17.334C44.0898 17.8288 44.0117 18.2552 43.8555 18.6133C43.6992 18.9714 43.4941 19.2676 43.2402 19.502C42.9928 19.7298 42.7096 19.8991 42.3906 20.0098C42.0716 20.1204 41.7461 20.1758 41.4141 20.1758C41.1797 20.1758 40.9486 20.1465 40.7207 20.0879C40.4993 20.0358 40.2878 19.9544 40.0859 19.8438C39.8906 19.7331 39.7116 19.5931 39.5488 19.4238C39.3926 19.248 39.2689 19.043 39.1777 18.8086C39.0671 18.8086 38.9824 18.8379 38.9238 18.8965C38.8717 18.9551 38.8457 19.0332 38.8457 19.1309C38.8457 19.222 38.875 19.3197 38.9336 19.4238C38.9922 19.528 39.0768 19.6354 39.1875 19.7461C38.9792 19.8893 38.6992 19.9967 38.3477 20.0684C37.9961 20.14 37.638 20.1758 37.2734 20.1758C36.681 20.1758 36.1406 20.0944 35.6523 19.9316C35.1706 19.7689 34.7539 19.528 34.4023 19.209C34.0573 18.89 33.7871 18.5026 33.5918 18.0469C33.403 17.5846 33.3086 17.054 33.3086 16.4551C33.3086 15.8366 33.4095 15.3027 33.6113 14.8535C33.8197 14.3978 34.0996 14.0234 34.4512 13.7305C34.8027 13.431 35.2096 13.2096 35.6719 13.0664C36.1406 12.9232 36.6354 12.8516 37.1562 12.8516C37.3906 12.8516 37.599 12.8613 37.7812 12.8809C37.9635 12.8939 38.1198 12.9102 38.25 12.9297C38.3997 12.9557 38.5267 12.9818 38.6309 13.0078C38.6504 12.9427 38.6602 12.8874 38.6602 12.8418C38.6602 12.7572 38.6146 12.6855 38.5234 12.627C38.4388 12.5684 38.3249 12.526 38.1816 12.5C38.0384 12.4674 37.8724 12.4447 37.6836 12.4316C37.4948 12.4186 37.3027 12.4121 37.1074 12.4121C36.6647 12.4121 36.222 12.4609 35.7793 12.5586C35.3366 12.6562 34.9395 12.806 34.5879 13.0078C34.4447 12.7669 34.3275 12.4609 34.2363 12.0898C34.1517 11.7188 34.1094 11.3411 34.1094 10.957C34.1094 10.7747 34.1191 10.5924 34.1387 10.4102C34.1647 10.2214 34.2135 10.0553 34.2852 9.91211C34.5716 9.7819 34.9753 9.63867 35.4961 9.48242C36.0234 9.31966 36.6517 9.20573 37.3809 9.14062ZM49.7051 20.3027C48.9434 20.3027 48.2272 20.1855 47.5566 19.9512C46.8926 19.7168 46.3132 19.362 45.8184 18.8867C45.3301 18.4115 44.9427 17.819 44.6562 17.1094C44.3698 16.3997 44.2266 15.5697 44.2266 14.6191C44.2266 13.7598 44.36 12.985 44.627 12.2949C44.8939 11.5983 45.2682 11.0059 45.75 10.5176C46.2318 10.0293 46.8079 9.65495 47.4785 9.39453C48.1491 9.13411 48.8913 9.00391 49.7051 9.00391C50.5189 9.00391 51.2611 9.14388 51.9316 9.42383C52.6022 9.70378 53.1751 10.0977 53.6504 10.6055C54.1322 11.1068 54.5033 11.709 54.7637 12.4121C55.0306 13.1087 55.1641 13.8737 55.1641 14.707C55.1641 15.5664 55.0404 16.3411 54.793 17.0312C54.5456 17.7214 54.1875 18.3105 53.7188 18.7988C53.25 19.2806 52.6771 19.6517 52 19.9121C51.3229 20.1725 50.5579 20.3027 49.7051 20.3027ZM49.4805 16.2695C49.526 16.3151 49.5944 16.3379 49.6855 16.3379C49.8092 16.3379 49.8906 16.3021 49.9297 16.2305C49.9753 16.1523 49.998 16.0286 49.998 15.8594V14.4629C49.998 14.1699 49.9915 13.9225 49.9785 13.7207C49.972 13.5189 49.9525 13.3529 49.9199 13.2227C49.8874 13.0924 49.8451 13.0078 49.793 12.9688C49.7474 12.9297 49.6921 12.9102 49.627 12.9102C49.5684 12.9102 49.5195 12.9199 49.4805 12.9395C49.4479 12.959 49.4186 12.9818 49.3926 13.0078C49.3991 13.112 49.4089 13.2096 49.4219 13.3008C49.4349 13.3919 49.4447 13.4961 49.4512 13.6133C49.4577 13.724 49.4642 13.8574 49.4707 14.0137C49.4772 14.1634 49.4805 14.3457 49.4805 14.5605V16.2695Z" fill="#A14EE5"/>
</g>
<g filter="url(#filter1_ddd_4_25)">
<path d="M4.01953 20.5742C4.3125 20.138 4.70638 19.8027 5.20117 19.5684C5.70247 19.334 6.2819 19.2168 6.93945 19.2168C7.45378 19.2168 7.89323 19.2754 8.25781 19.3926C8.62891 19.5033 8.94141 19.653 9.19531 19.8418C9.44922 20.0241 9.65104 20.2389 9.80078 20.4863C9.95703 20.7272 10.0775 20.9779 10.1621 21.2383L9.84961 27.4395C9.92773 27.459 9.99609 27.4688 10.0547 27.4688C10.1589 27.4688 10.2402 27.4362 10.2988 27.3711C10.3639 27.2995 10.403 27.1693 10.416 26.9805L10.8457 19.8711C10.9564 19.7734 11.1094 19.6855 11.3047 19.6074C11.5065 19.5293 11.7246 19.4642 11.959 19.4121C12.1934 19.3535 12.431 19.3079 12.6719 19.2754C12.9193 19.2428 13.1471 19.2266 13.3555 19.2266C13.8698 19.2266 14.3125 19.2917 14.6836 19.4219C15.0547 19.5456 15.3607 19.7181 15.6016 19.9395C15.8424 20.1608 16.0182 20.418 16.1289 20.7109C16.2396 20.9974 16.2949 21.3066 16.2949 21.6387C16.2949 22.0358 16.1354 22.918 15.8164 24.2852C15.5039 25.6458 15.0384 27.5241 14.4199 29.9199C14.3027 30.3626 14.1139 30.7305 13.8535 31.0234C13.5996 31.3099 13.2871 31.5378 12.916 31.707C12.5514 31.8763 12.1413 31.9967 11.6855 32.0684C11.2298 32.14 10.748 32.1758 10.2402 32.1758C9.89518 32.1758 9.55664 32.1562 9.22461 32.1172C8.89258 32.0781 8.57357 32.0228 8.26758 31.9512C7.9681 31.873 7.68815 31.7786 7.42773 31.668C7.16732 31.5508 6.93945 31.4173 6.74414 31.2676C6.50326 30.7402 6.2526 30.0957 5.99219 29.334C5.73177 28.5658 5.47786 27.7194 5.23047 26.7949C4.98958 25.8639 4.76172 24.8743 4.54688 23.8262C4.33854 22.7715 4.16276 21.6875 4.01953 20.5742ZM21.5488 32.3027C20.7871 32.3027 20.071 32.1855 19.4004 31.9512C18.7363 31.7168 18.1569 31.362 17.6621 30.8867C17.1738 30.4115 16.7865 29.819 16.5 29.1094C16.2135 28.3997 16.0703 27.5697 16.0703 26.6191C16.0703 25.7598 16.2038 24.985 16.4707 24.2949C16.7376 23.5983 17.112 23.0059 17.5938 22.5176C18.0755 22.0293 18.6517 21.6549 19.3223 21.3945C19.9928 21.1341 20.735 21.0039 21.5488 21.0039C22.3626 21.0039 23.1048 21.1439 23.7754 21.4238C24.446 21.7038 25.0189 22.0977 25.4941 22.6055C25.9759 23.1068 26.347 23.709 26.6074 24.4121C26.8743 25.1087 27.0078 25.8737 27.0078 26.707C27.0078 27.5664 26.8841 28.3411 26.6367 29.0312C26.3893 29.7214 26.0312 30.3105 25.5625 30.7988C25.0938 31.2806 24.5208 31.6517 23.8438 31.9121C23.1667 32.1725 22.4017 32.3027 21.5488 32.3027ZM21.3242 28.2695C21.3698 28.3151 21.4382 28.3379 21.5293 28.3379C21.653 28.3379 21.7344 28.3021 21.7734 28.2305C21.819 28.1523 21.8418 28.0286 21.8418 27.8594V26.4629C21.8418 26.1699 21.8353 25.9225 21.8223 25.7207C21.8158 25.5189 21.7962 25.3529 21.7637 25.2227C21.7311 25.0924 21.6888 25.0078 21.6367 24.9688C21.5911 24.9297 21.5358 24.9102 21.4707 24.9102C21.4121 24.9102 21.3633 24.9199 21.3242 24.9395C21.2917 24.959 21.2624 24.9818 21.2363 25.0078C21.2428 25.112 21.2526 25.2096 21.2656 25.3008C21.2786 25.3919 21.2884 25.4961 21.2949 25.6133C21.3014 25.724 21.3079 25.8574 21.3145 26.0137C21.321 26.1634 21.3242 26.3457 21.3242 26.5605V28.2695ZM27.5645 18.709C27.6296 18.6699 27.7337 18.6146 27.877 18.543C28.0202 18.4714 28.1895 18.403 28.3848 18.3379C28.5866 18.2663 28.8145 18.2077 29.0684 18.1621C29.3223 18.11 29.5924 18.084 29.8789 18.084C30.3477 18.084 30.748 18.1361 31.0801 18.2402C31.4186 18.3444 31.6953 18.4909 31.9102 18.6797C32.125 18.862 32.2812 19.0833 32.3789 19.3438C32.4831 19.6042 32.5352 19.8939 32.5352 20.2129V27.0781C32.5352 27.5273 32.584 27.9147 32.6816 28.2402C32.7793 28.5592 32.9648 28.8034 33.2383 28.9727C33.2448 29.0247 33.248 29.0898 33.248 29.168C33.248 29.2396 33.248 29.2949 33.248 29.334C33.248 30.278 33.0072 30.9876 32.5254 31.4629C32.0501 31.9382 31.3861 32.1758 30.5332 32.1758C30.1491 32.1758 29.778 32.1204 29.4199 32.0098C29.0618 31.8991 28.7461 31.7135 28.4727 31.4531C28.1992 31.1927 27.9779 30.8509 27.8086 30.4277C27.6458 30.0046 27.5645 29.4805 27.5645 28.8555V18.709ZM35.2109 21.3262C35.4844 21.3262 35.7318 21.3457 35.9531 21.3848C36.1745 21.4238 36.36 21.4824 36.5098 21.5605C36.1452 21.8275 35.901 22.0651 35.7773 22.2734C35.7318 22.3516 35.709 22.4329 35.709 22.5176C35.709 22.5957 35.7318 22.6641 35.7773 22.7227C35.8294 22.7812 35.9206 22.8105 36.0508 22.8105C36.2396 22.5111 36.4447 22.2507 36.666 22.0293C36.8874 21.8014 37.1348 21.6126 37.4082 21.4629C37.6816 21.3066 37.9844 21.1927 38.3164 21.1211C38.6549 21.043 39.0293 21.0039 39.4395 21.0039C39.6934 21.0039 39.9863 21.0299 40.3184 21.082C40.6569 21.1276 41.0052 21.222 41.3633 21.3652C41.7214 21.502 42.0729 21.7005 42.418 21.9609C42.7695 22.2148 43.082 22.5501 43.3555 22.9668C43.6289 23.377 43.8503 23.8815 44.0195 24.4805C44.1888 25.0794 44.2734 25.7923 44.2734 26.6191C44.2734 27.472 44.1562 28.2337 43.9219 28.9043C43.6875 29.5684 43.349 30.1315 42.9062 30.5938C42.4635 31.0495 41.9232 31.3978 41.2852 31.6387C40.6536 31.873 39.9375 31.9902 39.1367 31.9902C38.7917 31.9902 38.4987 31.9772 38.2578 31.9512C38.0169 31.9251 37.8151 31.8958 37.6523 31.8633C37.4896 31.8242 37.3594 31.7884 37.2617 31.7559C37.1641 31.7168 37.0892 31.6842 37.0371 31.6582C36.9915 31.6908 36.9688 31.7461 36.9688 31.8242C36.9688 31.9219 37.0046 32.0033 37.0762 32.0684C37.1478 32.14 37.2617 32.1986 37.418 32.2441C37.5807 32.2897 37.7891 32.3255 38.043 32.3516C38.3034 32.3841 38.6191 32.4102 38.9902 32.4297V35.0273C38.86 35.0859 38.707 35.1413 38.5312 35.1934C38.362 35.252 38.1797 35.3008 37.9844 35.3398C37.7891 35.3854 37.5872 35.418 37.3789 35.4375C37.1771 35.4635 36.9785 35.4766 36.7832 35.4766C36.3405 35.4766 35.9368 35.4342 35.5723 35.3496C35.2077 35.2715 34.8952 35.1413 34.6348 34.959C34.3809 34.7832 34.1823 34.5553 34.0391 34.2754C33.8958 33.9954 33.8242 33.6536 33.8242 33.25V25.3887C33.6289 25.1152 33.4824 24.806 33.3848 24.4609C33.2936 24.1159 33.248 23.7546 33.248 23.377C33.248 23.2207 33.2611 23.0547 33.2871 22.8789C33.3066 22.7031 33.3392 22.5241 33.3848 22.3418C33.4368 22.1595 33.4987 21.9837 33.5703 21.8145C33.6419 21.6387 33.7266 21.4759 33.8242 21.3262H35.2109ZM38.8242 28.0352C38.8698 28.0807 38.9382 28.1035 39.0293 28.1035C39.153 28.1035 39.2344 28.0677 39.2734 27.9961C39.319 27.918 39.3418 27.7943 39.3418 27.625V26.6289C39.3418 26.3359 39.3353 26.0885 39.3223 25.8867C39.3158 25.6849 39.2962 25.5189 39.2637 25.3887C39.2311 25.2585 39.1888 25.1738 39.1367 25.1348C39.0911 25.0957 39.0358 25.0762 38.9707 25.0762C38.9121 25.0762 38.8633 25.0859 38.8242 25.1055C38.7917 25.125 38.7624 25.1478 38.7363 25.1738C38.7428 25.278 38.7526 25.3757 38.7656 25.4668C38.7786 25.5579 38.7884 25.6621 38.7949 25.7793C38.8014 25.89 38.8079 26.0234 38.8145 26.1797C38.821 26.3294 38.8242 26.5117 38.8242 26.7266V28.0352ZM50.1426 32.3027C49.3809 32.3027 48.6647 32.1855 47.9941 31.9512C47.3301 31.7168 46.7507 31.362 46.2559 30.8867C45.7676 30.4115 45.3802 29.819 45.0938 29.1094C44.8073 28.3997 44.6641 27.5697 44.6641 26.6191C44.6641 25.7598 44.7975 24.985 45.0645 24.2949C45.3314 23.5983 45.7057 23.0059 46.1875 22.5176C46.6693 22.0293 47.2454 21.6549 47.916 21.3945C48.5866 21.1341 49.3288 21.0039 50.1426 21.0039C50.9564 21.0039 51.6986 21.1439 52.3691 21.4238C53.0397 21.7038 53.6126 22.0977 54.0879 22.6055C54.5697 23.1068 54.9408 23.709 55.2012 24.4121C55.4681 25.1087 55.6016 25.8737 55.6016 26.707C55.6016 27.5664 55.4779 28.3411 55.2305 29.0312C54.9831 29.7214 54.625 30.3105 54.1562 30.7988C53.6875 31.2806 53.1146 31.6517 52.4375 31.9121C51.7604 32.1725 50.9954 32.3027 50.1426 32.3027ZM49.918 28.2695C49.9635 28.3151 50.0319 28.3379 50.123 28.3379C50.2467 28.3379 50.3281 28.3021 50.3672 28.2305C50.4128 28.1523 50.4355 28.0286 50.4355 27.8594V26.4629C50.4355 26.1699 50.429 25.9225 50.416 25.7207C50.4095 25.5189 50.39 25.3529 50.3574 25.2227C50.3249 25.0924 50.2826 25.0078 50.2305 24.9688C50.1849 24.9297 50.1296 24.9102 50.0645 24.9102C50.0059 24.9102 49.957 24.9199 49.918 24.9395C49.8854 24.959 49.8561 24.9818 49.8301 25.0078C49.8366 25.112 49.8464 25.2096 49.8594 25.3008C49.8724 25.3919 49.8822 25.4961 49.8887 25.6133C49.8952 25.724 49.9017 25.8574 49.9082 26.0137C49.9147 26.1634 49.918 26.3457 49.918 26.5605V28.2695ZM58.1211 21.3262C58.3945 21.3262 58.6224 21.375 58.8047 21.4727C58.9935 21.5703 59.1595 21.694 59.3027 21.8438C59.0163 22.1107 58.873 22.332 58.873 22.5078C58.873 22.5859 58.8991 22.6576 58.9512 22.7227C59.0033 22.7812 59.0911 22.8105 59.2148 22.8105C59.3451 22.5827 59.5143 22.3646 59.7227 22.1562C59.9375 21.9479 60.1849 21.7656 60.4648 21.6094C60.7513 21.4531 61.0671 21.3294 61.4121 21.2383C61.7637 21.1406 62.138 21.0918 62.5352 21.0918C63.0039 21.0918 63.4792 21.1536 63.9609 21.2773C64.4492 21.401 64.8887 21.6159 65.2793 21.9219C65.6699 22.2279 65.9889 22.6445 66.2363 23.1719C66.4837 23.6992 66.6074 24.3633 66.6074 25.1641C66.6074 25.457 66.6009 25.7858 66.5879 26.1504C66.5814 26.515 66.5781 26.8535 66.5781 27.166C66.5781 27.6152 66.627 27.9863 66.7246 28.2793C66.8223 28.5723 67.0078 28.8034 67.2812 28.9727C67.2878 29.0247 67.291 29.0898 67.291 29.168C67.291 29.2396 67.291 29.2949 67.291 29.334C67.291 29.7962 67.2194 30.2064 67.0762 30.5645C66.9329 30.916 66.7376 31.2122 66.4902 31.4531C66.2428 31.694 65.9531 31.8763 65.6211 32C65.2956 32.1172 64.9473 32.1758 64.5762 32.1758C64.1855 32.1758 63.8112 32.1204 63.4531 32.0098C63.1016 31.9056 62.7891 31.7331 62.5156 31.4922C62.2487 31.2448 62.0339 30.9258 61.8711 30.5352C61.7148 30.138 61.6367 29.653 61.6367 29.0801C61.6367 28.7741 61.6465 28.4844 61.666 28.2109C61.6921 27.9375 61.7181 27.6836 61.7441 27.4492C61.7767 27.2083 61.806 26.987 61.832 26.7852C61.8581 26.5833 61.8711 26.3978 61.8711 26.2285C61.8711 25.916 61.8353 25.7044 61.7637 25.5938C61.6986 25.4766 61.5911 25.418 61.4414 25.418C61.3438 25.418 61.2526 25.444 61.168 25.4961L61.2949 27.0879C61.2624 27.2832 61.2331 27.4818 61.207 27.6836C61.1875 27.8789 61.1712 28.0645 61.1582 28.2402C61.1452 28.416 61.1354 28.5755 61.1289 28.7188C61.1224 28.862 61.1191 28.9792 61.1191 29.0703C61.1191 29.5781 61.168 29.998 61.2656 30.3301C61.3698 30.6621 61.487 30.9486 61.6172 31.1895C61.3307 31.4889 60.9564 31.7298 60.4941 31.9121C60.0384 32.0879 59.5176 32.1758 58.9316 32.1758C58.6387 32.1758 58.3392 32.1335 58.0332 32.0488C57.7337 31.9642 57.4603 31.8372 57.2129 31.668C56.972 31.4922 56.7734 31.2773 56.6172 31.0234C56.4609 30.763 56.3828 30.457 56.3828 30.1055V25.3789C56.1875 25.1055 56.041 24.7962 55.9434 24.4512C55.8522 24.1061 55.8066 23.7448 55.8066 23.3672C55.8066 23.0547 55.8522 22.7096 55.9434 22.332C56.041 21.9544 56.1875 21.6191 56.3828 21.3262H58.1211ZM67.6816 22.6055C67.8118 22.5208 67.9421 22.4525 68.0723 22.4004C68.2025 22.3483 68.3424 22.2832 68.4922 22.2051C68.3685 22.14 68.2415 22.0488 68.1113 21.9316C67.9811 21.8145 67.8607 21.6745 67.75 21.5117C67.6458 21.3424 67.5579 21.1504 67.4863 20.9355C67.4212 20.7207 67.3887 20.4798 67.3887 20.2129C67.3887 19.7962 67.4603 19.4186 67.6035 19.0801C67.7533 18.735 67.9551 18.4421 68.209 18.2012C68.4629 17.9538 68.7591 17.7617 69.0977 17.625C69.4362 17.4883 69.8008 17.4199 70.1914 17.4199C70.5885 17.4199 70.9531 17.4915 71.2852 17.6348C71.6237 17.778 71.9167 17.9733 72.1641 18.2207C72.4115 18.4681 72.6035 18.7643 72.7402 19.1094C72.8835 19.4479 72.9551 19.8158 72.9551 20.2129C72.9551 20.5514 72.8965 20.8672 72.7793 21.1602C72.6686 21.4466 72.5189 21.7038 72.3301 21.9316C72.1413 22.1595 71.9199 22.3516 71.666 22.5078C71.4121 22.6576 71.1484 22.7617 70.875 22.8203C70.875 22.918 70.8945 23.0059 70.9336 23.084C70.9792 23.1556 71.054 23.1914 71.1582 23.1914C71.4837 23.1914 71.8223 23.0612 72.1738 22.8008C72.1934 22.8138 72.2259 22.8366 72.2715 22.8691C72.3171 22.9017 72.3659 22.9408 72.418 22.9863C72.4701 23.0319 72.5189 23.0775 72.5645 23.123C72.61 23.1621 72.6393 23.1914 72.6523 23.2109V27.0781C72.6523 27.5273 72.7012 27.9147 72.7988 28.2402C72.8965 28.5592 73.082 28.8034 73.3555 28.9727C73.362 29.0247 73.3652 29.0898 73.3652 29.168C73.3652 29.2396 73.3652 29.2949 73.3652 29.334C73.3652 29.8288 73.2969 30.2552 73.1602 30.6133C73.0234 30.9714 72.8314 31.2676 72.584 31.502C72.3366 31.7298 72.0404 31.8991 71.6953 32.0098C71.3568 32.1204 70.9857 32.1758 70.582 32.1758C70.2695 32.1758 69.9408 32.1237 69.5957 32.0195C69.2572 31.9154 68.9447 31.7396 68.6582 31.4922C68.3783 31.2448 68.1439 30.916 67.9551 30.5059C67.7728 30.0892 67.6816 29.5716 67.6816 28.9531V22.6055Z" fill="#64A0DE"/>
</g>
<defs>
<filter id="filter0_ddd_4_25" x="8.21484" y="5.12695" width="50.9492" height="23.1758" filterUnits="userSpaceOnUse" color-interpolation-filters="sRGB">
<feFlood flood-opacity="0" result="BackgroundImageFix"/>
<feColorMatrix in="SourceAlpha" type="matrix" values="0 0 0 0 0 0 0 0 0 0 0 0 0 0 0 0 0 0 127 0" result="hardAlpha"/>
<feOffset dy="4"/>
<feGaussianBlur stdDeviation="2"/>
<feComposite in2="hardAlpha" operator="out"/>
<feColorMatrix type="matrix" values="0 0 0 0 0 0 0 0 0 0 0 0 0 0 0 0 0 0 0.25 0"/>
<feBlend mode="normal" in2="BackgroundImageFix" result="effect1_dropShadow_4_25"/>
<feColorMatrix in="SourceAlpha" type="matrix" values="0 0 0 0 0 0 0 0 0 0 0 0 0 0 0 0 0 0 127 0" result="hardAlpha"/>
<feOffset dy="4"/>
<feGaussianBlur stdDeviation="2"/>
<feComposite in2="hardAlpha" operator="out"/>
<feColorMatrix type="matrix" values="0 0 0 0 0 0 0 0 0 0 0 0 0 0 0 0 0 0 0.25 0"/>
<feBlend mode="normal" in2="effect1_dropShadow_4_25" result="effect2_dropShadow_4_25"/>
<feColorMatrix in="SourceAlpha" type="matrix" values="0 0 0 0 0 0 0 0 0 0 0 0 0 0 0 0 0 0 127 0" result="hardAlpha"/>
<feOffset dy="4"/>
<feGaussianBlur stdDeviation="2"/>
<feComposite in2="hardAlpha" operator="out"/>
<feColorMatrix type="matrix" values="0 0 0 0 0 0 0 0 0 0 0 0 0 0 0 0 0 0 0.25 0"/>
<feBlend mode="normal" in2="effect2_dropShadow_4_25" result="effect3_dropShadow_4_25"/>
<feBlend mode="normal" in="SourceGraphic" in2="effect3_dropShadow_4_25" result="shape"/>
</filter>
<filter id="filter1_ddd_4_25" x="0.0195312" y="17.4199" width="77.3457" height="26.0566" filterUnits="userSpaceOnUse" color-interpolation-filters="sRGB">
<feFlood flood-opacity="0" result="BackgroundImageFix"/>
<feColorMatrix in="SourceAlpha" type="matrix" values="0 0 0 0 0 0 0 0 0 0 0 0 0 0 0 0 0 0 127 0" result="hardAlpha"/>
<feOffset dy="4"/>
<feGaussianBlur stdDeviation="2"/>
<feComposite in2="hardAlpha" operator="out"/>
<feColorMatrix type="matrix" values="0 0 0 0 0 0 0 0 0 0 0 0 0 0 0 0 0 0 0.25 0"/>
<feBlend mode="normal" in2="BackgroundImageFix" result="effect1_dropShadow_4_25"/>
<feColorMatrix in="SourceAlpha" type="matrix" values="0 0 0 0 0 0 0 0 0 0 0 0 0 0 0 0 0 0 127 0" result="hardAlpha"/>
<feOffset dy="4"/>
<feGaussianBlur stdDeviation="2"/>
<feComposite in2="hardAlpha" operator="out"/>
<feColorMatrix type="matrix" values="0 0 0 0 0 0 0 0 0 0 0 0 0 0 0 0 0 0 0.25 0"/>
<feBlend mode="normal" in2="effect1_dropShadow_4_25" result="effect2_dropShadow_4_25"/>
<feColorMatrix in="SourceAlpha" type="matrix" values="0 0 0 0 0 0 0 0 0 0 0 0 0 0 0 0 0 0 127 0" result="hardAlpha"/>
<feOffset dy="4"/>
<feGaussianBlur stdDeviation="2"/>
<feComposite in2="hardAlpha" operator="out"/>
<feColorMatrix type="matrix" values="0 0 0 0 0 0 0 0 0 0 0 0 0 0 0 0 0 0 0.25 0"/>
<feBlend mode="normal" in2="effect2_dropShadow_4_25" result="effect3_dropShadow_4_25"/>
<feBlend mode="normal" in="SourceGraphic" in2="effect3_dropShadow_4_25" result="shape"/>
</filter>
</defs>
</svg>
