<svg width="152" height="45" viewBox="0 0 152 45" fill="none" xmlns="http://www.w3.org/2000/svg">
<path d="M2.96 20C2.42667 20 1.94 19.8733 1.5 19.62C1.07333 19.3533 0.726667 19.0067 0.46 18.58C0.206667 18.14 0.08 17.6533 0.08 17.12V15.38H2.96V16.98C2.96 17.02 2.96667 17.0533 2.98 17.08C3.00667 17.0933 3.04 17.1 3.08 17.1H11.44C11.48 17.1 11.5067 17.0933 11.52 17.08C11.5467 17.0533 11.56 17.02 11.56 16.98V5.6H14.48V17.12C14.48 17.6533 14.3467 18.14 14.08 18.58C13.8133 19.0067 13.46 19.3533 13.02 19.62C12.5933 19.8733 12.12 20 11.6 20H2.96ZM19.5655 20C19.0321 20 18.5455 19.8733 18.1055 19.62C17.6788 19.3533 17.3321 19.0067 17.0655 18.58C16.8121 18.14 16.6855 17.6533 16.6855 17.12V8.48C16.6855 7.94667 16.8121 7.46667 17.0655 7.04C17.3321 6.6 17.6788 6.25333 18.1055 6C18.5455 5.73333 19.0321 5.6 19.5655 5.6H28.2055C28.7255 5.6 29.1988 5.73333 29.6255 6C30.0655 6.25333 30.4188 6.6 30.6855 7.04C30.9521 7.46667 31.0855 7.94667 31.0855 8.48V17.12C31.0855 17.6533 30.9521 18.14 30.6855 18.58C30.4188 19.0067 30.0655 19.3533 29.6255 19.62C29.1988 19.8733 28.7255 20 28.2055 20H19.5655ZM19.6855 17.1H28.0455C28.0855 17.1 28.1121 17.0933 28.1255 17.08C28.1521 17.0533 28.1655 17.02 28.1655 16.98V8.62C28.1655 8.58 28.1521 8.55333 28.1255 8.54C28.1121 8.51333 28.0855 8.5 28.0455 8.5H19.6855C19.6455 8.5 19.6121 8.51333 19.5855 8.54C19.5721 8.55333 19.5655 8.58 19.5655 8.62V16.98C19.5655 17.02 19.5721 17.0533 19.5855 17.08C19.6121 17.0933 19.6455 17.1 19.6855 17.1ZM33.328 20V8.48C33.328 7.94667 33.4546 7.46667 33.708 7.04C33.9746 6.6 34.3213 6.25333 34.748 6C35.188 5.73333 35.6746 5.6 36.208 5.6H44.828C45.3613 5.6 45.8413 5.73333 46.268 6C46.708 6.25333 47.0613 6.6 47.328 7.04C47.5946 7.46667 47.728 7.94667 47.728 8.48V20H44.808V15.26H36.208V20H33.328ZM36.208 12.38H44.808V8.62C44.808 8.58 44.7946 8.55333 44.768 8.54C44.7546 8.51333 44.728 8.5 44.688 8.5H36.328C36.288 8.5 36.2546 8.51333 36.228 8.54C36.2146 8.55333 36.208 8.58 36.208 8.62V12.38ZM42.328 4.14C41.568 4.14 40.8146 3.86 40.068 3.3C39.348 2.74 38.7413 2.46 38.248 2.46H36.828V0.279999H38.508C39.2146 0.279999 39.9013 0.566666 40.568 1.14C41.248 1.72667 41.888 2.02 42.488 2.02H44.228V4.14H42.328ZM52.8467 20C52.3134 20 51.8267 19.8733 51.3867 19.62C50.9601 19.3533 50.6134 19.0067 50.3467 18.58C50.0934 18.14 49.9667 17.6533 49.9667 17.12V8.48C49.9667 7.94667 50.0934 7.46667 50.3467 7.04C50.6134 6.6 50.9601 6.25333 51.3867 6C51.8267 5.73333 52.3134 5.6 52.8467 5.6H61.4867C62.0067 5.6 62.4801 5.73333 62.9067 6C63.3467 6.25333 63.7001 6.6 63.9667 7.04C64.2334 7.46667 64.3667 7.94667 64.3667 8.48V17.12C64.3667 17.6533 64.2334 18.14 63.9667 18.58C63.7001 19.0067 63.3467 19.3533 62.9067 19.62C62.4801 19.8733 62.0067 20 61.4867 20H52.8467ZM52.9667 17.1H61.3267C61.3667 17.1 61.3934 17.0933 61.4067 17.08C61.4334 17.0533 61.4467 17.02 61.4467 16.98V8.62C61.4467 8.58 61.4334 8.55333 61.4067 8.54C61.3934 8.51333 61.3667 8.5 61.3267 8.5H52.9667C52.9267 8.5 52.8934 8.51333 52.8667 8.54C52.8534 8.55333 52.8467 8.58 52.8467 8.62V16.98C52.8467 17.02 52.8534 17.0533 52.8667 17.08C52.8934 17.0933 52.9267 17.1 52.9667 17.1ZM72.8778 20V5.62H84.3778C84.9111 5.62 85.3911 5.75333 85.8178 6.02C86.2578 6.27333 86.6111 6.62 86.8778 7.06C87.1445 7.5 87.2778 7.98 87.2778 8.5V12.3C87.2778 12.82 87.1445 13.3 86.8778 13.74C86.6111 14.1667 86.2578 14.5133 85.8178 14.78C85.3911 15.0333 84.9111 15.16 84.3778 15.16L75.7578 15.18V20H72.8778ZM75.8778 12.26H84.2378C84.2778 12.26 84.3045 12.2533 84.3178 12.24C84.3445 12.2133 84.3578 12.1867 84.3578 12.16V8.62C84.3578 8.58 84.3445 8.55333 84.3178 8.54C84.3045 8.51333 84.2778 8.5 84.2378 8.5H75.8778C75.8378 8.5 75.8045 8.51333 75.7778 8.54C75.7645 8.55333 75.7578 8.58 75.7578 8.62V12.16C75.7578 12.1867 75.7645 12.2133 75.7778 12.24C75.8045 12.2533 75.8378 12.26 75.8778 12.26ZM88.7381 20V5.6H102.018V8.5H91.6581V11.34H99.9981V14.26H91.6581V17.1H102.018V20H88.7381ZM104.051 20V5.6H115.551C116.084 5.6 116.564 5.73333 116.991 6C117.431 6.25333 117.784 6.6 118.051 7.04C118.317 7.46667 118.451 7.94667 118.451 8.48V17.12C118.451 17.6533 118.317 18.14 118.051 18.58C117.784 19.0067 117.431 19.3533 116.991 19.62C116.564 19.8733 116.084 20 115.551 20H104.051ZM107.031 17.1H115.411C115.451 17.1 115.477 17.0933 115.491 17.08C115.517 17.0533 115.531 17.02 115.531 16.98V8.62C115.531 8.58 115.517 8.55333 115.491 8.54C115.477 8.51333 115.451 8.5 115.411 8.5H107.031C107.004 8.5 106.977 8.51333 106.951 8.54C106.924 8.55333 106.911 8.58 106.911 8.62V16.98C106.911 17.02 106.924 17.0533 106.951 17.08C106.977 17.0933 107.004 17.1 107.031 17.1ZM132.01 20L127.75 14.92H131.53L135.05 19.1V20H132.01ZM120.69 20V5.62H132.19C132.724 5.62 133.204 5.75333 133.63 6.02C134.07 6.27333 134.424 6.62 134.69 7.06C134.957 7.5 135.09 7.98 135.09 8.5V12.3C135.09 12.82 134.957 13.3 134.69 13.74C134.424 14.1667 134.07 14.5133 133.63 14.78C133.204 15.0333 132.724 15.16 132.19 15.16L123.57 15.18V20H120.69ZM123.69 12.26H132.05C132.09 12.26 132.117 12.2533 132.13 12.24C132.157 12.2133 132.17 12.1867 132.17 12.16V8.62C132.17 8.58 132.157 8.55333 132.13 8.54C132.117 8.51333 132.09 8.5 132.05 8.5H123.69C123.65 8.5 123.617 8.51333 123.59 8.54C123.577 8.55333 123.57 8.58 123.57 8.62V12.16C123.57 12.1867 123.577 12.2133 123.59 12.24C123.617 12.2533 123.65 12.26 123.69 12.26ZM140.034 20C139.501 20 139.014 19.8733 138.574 19.62C138.148 19.3533 137.801 19.0067 137.534 18.58C137.281 18.14 137.154 17.6533 137.154 17.12V8.48C137.154 7.94667 137.281 7.46667 137.534 7.04C137.801 6.6 138.148 6.25333 138.574 6C139.014 5.73333 139.501 5.6 140.034 5.6H148.674C149.194 5.6 149.668 5.73333 150.094 6C150.534 6.25333 150.888 6.6 151.154 7.04C151.421 7.46667 151.554 7.94667 151.554 8.48V17.12C151.554 17.6533 151.421 18.14 151.154 18.58C150.888 19.0067 150.534 19.3533 150.094 19.62C149.668 19.8733 149.194 20 148.674 20H140.034ZM140.154 17.1H148.514C148.554 17.1 148.581 17.0933 148.594 17.08C148.621 17.0533 148.634 17.02 148.634 16.98V8.62C148.634 8.58 148.621 8.55333 148.594 8.54C148.581 8.51333 148.554 8.5 148.514 8.5H140.154C140.114 8.5 140.081 8.51333 140.054 8.54C140.041 8.55333 140.034 8.58 140.034 8.62V16.98C140.034 17.02 140.041 17.0533 140.054 17.08C140.081 17.0933 140.114 17.1 140.154 17.1ZM9.04 45L0.7 30.6H4.04L10.28 41.42L16.52 30.6H19.86L11.52 45H9.04ZM23.9209 45C23.3876 45 22.9009 44.8733 22.4609 44.62C22.0343 44.3533 21.6876 44.0067 21.4209 43.58C21.1676 43.14 21.0409 42.6533 21.0409 42.12V33.48C21.0409 32.9467 21.1676 32.4667 21.4209 32.04C21.6876 31.6 22.0343 31.2533 22.4609 31C22.9009 30.7333 23.3876 30.6 23.9209 30.6H32.5609C33.0809 30.6 33.5543 30.7333 33.9809 31C34.4209 31.2533 34.7743 31.6 35.0409 32.04C35.3076 32.4667 35.4409 32.9467 35.4409 33.48V42.12C35.4409 42.6533 35.3076 43.14 35.0409 43.58C34.7743 44.0067 34.4209 44.3533 33.9809 44.62C33.5543 44.8733 33.0809 45 32.5609 45H23.9209ZM24.0409 42.1H32.4009C32.4409 42.1 32.4676 42.0933 32.4809 42.08C32.5076 42.0533 32.5209 42.02 32.5209 41.98V33.62C32.5209 33.58 32.5076 33.5533 32.4809 33.54C32.4676 33.5133 32.4409 33.5 32.4009 33.5H24.0409C24.0009 33.5 23.9676 33.5133 23.9409 33.54C23.9276 33.5533 23.9209 33.58 23.9209 33.62V41.98C23.9209 42.02 23.9276 42.0533 23.9409 42.08C23.9676 42.0933 24.0009 42.1 24.0409 42.1ZM37.6634 45V30.58H40.5434V42.1H52.0634V45H37.6634ZM53.2294 45V30.62H64.7294C65.2627 30.62 65.7427 30.7533 66.1694 31.02C66.6094 31.2733 66.9627 31.62 67.2294 32.06C67.496 32.5 67.6294 32.98 67.6294 33.5V37.3C67.6294 37.82 67.496 38.3 67.2294 38.74C66.9627 39.1667 66.6094 39.5133 66.1694 39.78C65.7427 40.0333 65.2627 40.16 64.7294 40.16L56.1094 40.18V45H53.2294ZM56.2294 37.26H64.5894C64.6294 37.26 64.656 37.2533 64.6694 37.24C64.696 37.2133 64.7094 37.1867 64.7094 37.16V33.62C64.7094 33.58 64.696 33.5533 64.6694 33.54C64.656 33.5133 64.6294 33.5 64.5894 33.5H56.2294C56.1894 33.5 56.156 33.5133 56.1294 33.54C56.116 33.5533 56.1094 33.58 56.1094 33.62V37.16C56.1094 37.1867 56.116 37.2133 56.1294 37.24C56.156 37.2533 56.1894 37.26 56.2294 37.26ZM71.8897 45C71.3564 45 70.8697 44.8733 70.4297 44.62C70.003 44.3533 69.6564 44.0067 69.3897 43.58C69.1364 43.14 69.0097 42.6533 69.0097 42.12V33.48C69.0097 32.9467 69.1364 32.4667 69.3897 32.04C69.6564 31.6 70.003 31.2533 70.4297 31C70.8697 30.7333 71.3564 30.6 71.8897 30.6H80.5297C81.0497 30.6 81.523 30.7333 81.9497 31C82.3897 31.2533 82.743 31.6 83.0097 32.04C83.2764 32.4667 83.4097 32.9467 83.4097 33.48V42.12C83.4097 42.6533 83.2764 43.14 83.0097 43.58C82.743 44.0067 82.3897 44.3533 81.9497 44.62C81.523 44.8733 81.0497 45 80.5297 45H71.8897ZM72.0097 42.1H80.3697C80.4097 42.1 80.4364 42.0933 80.4497 42.08C80.4764 42.0533 80.4897 42.02 80.4897 41.98V33.62C80.4897 33.58 80.4764 33.5533 80.4497 33.54C80.4364 33.5133 80.4097 33.5 80.3697 33.5H72.0097C71.9697 33.5 71.9364 33.5133 71.9097 33.54C71.8964 33.5533 71.8897 33.58 71.8897 33.62V41.98C71.8897 42.02 71.8964 42.0533 71.9097 42.08C71.9364 42.0933 71.9697 42.1 72.0097 42.1ZM85.6122 45V30.6H88.6722L97.0922 40.64V30.6H100.012V45H96.9522L88.4922 34.92V45H85.6122ZM101.853 45V30.6H104.713V45H101.853Z" fill="white"/>
</svg>
